{
  "title": "Fifty Shades of Grey (2015) CamRip [RUS]",
  "uid": 11703038,
  "size": 740585472,
  "categoryP": "video",
  "categoryS": "movies",
  "magnet": "?xt=urn:btih:04fb3ca32e7ad44864308947315570fe16972c42&amp;dn=Fifty+Shades+of+Grey+%282015%29+CamRip+%5BRUS%5D&amp;tr=udp%3A%2F%2Ftracker.openbittorrent.com%3A80&amp;tr=udp%3A%2F%2Fopen.demonii.com%3A1337&amp;tr=udp%3A%2F%2Ftracker.coppersurfer.tk%3A6969&amp;tr=udp%3A%2F%2Fexodus.desync.com%3A6969",
  "seeders": 46,
  "leechers": 0,
  "uploader": "yfjfrj",
  "files": 1,
  "time": 1423997228,
  "description": "MI:\nGeneral\nFormat                                   : AVI\nFormat/Info                              : Audio Video Interleave\nFile size                                : 706 MiB\nDuration                                 : 1h 58mn\nOverall bit rate                         : 834 Kbps\nWriting application                      : VirtualDubMod 1.5.10.3 | www.virtualdub-fr.org || (build 2550/release)\nWriting library                          : VirtualDubMod build 2550/release\n\nVideo\nID                                       : 0\nFormat                                   : MPEG-4 Visual\nFormat profile                           : Advanced Simple@L5\nFormat settings, BVOP                    : 3\nFormat settings, QPel                    : No\nFormat settings, GMC                     : No warppoints\nFormat settings, Matrix                  : Custom\nCodec ID                                 : XVID\nCodec ID/Hint                            : XviD\nDuration                                 : 1h 58mn\nBit rate                                 : 694 Kbps\nWidth                                    : 640 pixels\nHeight                                   : 224 pixels\nDisplay aspect ratio                     : 2.857\nFrame rate                               : 29.970 fps\nColor space                              : YUV\nChroma subsampling                       : 4:2:0\nBit depth                                : 8 bits\nScan type                                : Progressive\nCompression mode                         : Lossy\nBits/(Pixel*Frame)                       : 0.162\nStream size                              : 588 MiB (83%)\nWriting library                          : XviD 1.2.1 (UTC 2008-12-04)\n\nAudio\nID                                       : 1\nFormat                                   : MPEG Audio\nFormat version                           : Version 1\nFormat profile                           : Layer 3\nMode                                     : Joint stereo\nMode extension                           : MS Stereo\nCodec ID                                 : 55\nCodec ID/Hint                            : MP3\nDuration                                 : 1h 58mn\nBit rate mode                            : Constant\nBit rate                                 : 128 Kbps\nChannel(s)                               : 2 channels\nSampling rate                            : 48.0 KHz\nCompression mode                         : Lossy\nStream size                              : 108 MiB (15%)\nAlignment                                : Aligned on interleaves\nInterleave, duration                     : 33 ms (1.00 video frame)\nInterleave, preload duration             : 504 ms\nWriting library                          : L3.99r\nEncoding settings                        : -m j -V 4 -q 2 -lowpass 17 -b 128\n\nScreens",
  "parsed": {
    "xt": "urn:btih:04fb3ca32e7ad44864308947315570fe16972c42",
    "dn": "Fifty Shades of Grey (2015) CamRip [RUS]",
    "tr": [
      "udp://exodus.desync.com:6969",
      "udp://open.demonii.com:1337",
      "udp://tracker.coppersurfer.tk:6969",
      "udp://tracker.openbittorrent.com:80"
    ],
    "infoHash": "04fb3ca32e7ad44864308947315570fe16972c42",
    "infoHashBuffer": {
      "type": "Buffer",
      "data": [
        4,
        251,
        60,
        163,
        46,
        122,
        212,
        72,
        100,
        48,
        137,
        71,
        49,
        85,
        112,
        254,
        22,
        151,
        44,
        66
      ]
    },
    "name": "Fifty Shades of Grey (2015) CamRip [RUS]",
    "announce": [
      "udp://exodus.desync.com:6969",
      "udp://open.demonii.com:1337",
      "udp://tracker.coppersurfer.tk:6969",
      "udp://tracker.openbittorrent.com:80"
    ],
    "urlList": []
  },
  "previous": 46,
  "peers": 1,
  "last_updated": "2016-12-24T15:53:06.359Z"
}